<svg width="356" height="359" viewBox="0 0 356 359" fill="none" xmlns="http://www.w3.org/2000/svg">
<path d="M195.248 171.509C193.316 171.091 191.296 171.457 189.634 172.528C187.972 173.598 186.803 175.285 186.385 177.218C185.966 179.15 186.333 181.169 187.403 182.832C188.474 184.494 190.161 185.663 192.093 186.081C196.117 186.952 206.786 181.634 206.786 181.634C206.786 181.634 199.272 172.38 195.248 171.509Z" fill="#8C85FF"/>
<path d="M76.8387 311.312C92.9748 302.316 103.02 290.035 106.696 274.81C109.425 263.506 108.64 250.785 104.365 237.002C101.195 226.839 96.4431 217.24 90.2833 208.558C57.6048 162.302 54.6554 132.162 57.9355 115.023C61.5319 96.2299 73.2164 88.425 73.3341 88.3485L72.8297 87.5728C72.709 87.6511 60.7167 95.6374 57.0338 114.812C54.9107 125.866 55.9096 138.47 60.0026 152.275C65.0968 169.455 75.0305 188.571 89.5275 209.092C95.6311 217.695 100.34 227.206 103.481 237.275C110.494 259.882 111.486 290.938 76.3883 310.504L76.8387 311.312Z" fill="#B0AFE8" fill-opacity="0.24"/>
<path d="M106.309 225.662C119.03 218.571 118.676 207.333 116.139 199.154C115.014 195.546 113.327 192.139 111.141 189.057C99.6925 172.852 98.6579 162.326 99.8059 156.348C101.053 149.857 105.053 147.192 105.093 147.166L104.589 146.391C104.411 146.506 100.218 149.3 98.8974 156.174C97.1781 165.124 101.043 176.368 110.385 189.591C112.515 192.593 114.159 195.913 115.255 199.427C117.691 207.28 118.038 218.065 105.859 224.854L106.309 225.662Z" fill="#B0AFE8" fill-opacity="0.24"/>
<path d="M49.0756 122.961L49.526 122.153C37.3468 115.364 37.6938 104.579 40.1295 96.7267C41.2257 93.2121 42.8693 89.8924 44.9999 86.89C54.3417 73.6667 58.2066 62.4234 56.4874 53.4726C55.1671 46.5987 50.9739 43.8049 50.7962 43.6895L50.2913 44.4647C50.3317 44.4914 54.3519 47.1912 55.5859 53.6836C56.7212 59.6577 55.6753 70.1754 44.2441 86.356C42.0577 89.4378 40.3709 92.8452 39.2459 96.4524C36.7087 104.631 36.3545 115.87 49.0756 122.961Z" fill="white" fill-opacity="0.24"/>
<path d="M21.9153 76.9296C22.9108 78.4568 24.1974 79.7729 25.7017 80.8027C27.2059 81.8325 28.8983 82.5558 30.6822 82.9314C32.4661 83.307 34.3065 83.3275 36.0983 82.9917C37.8901 82.6559 39.5981 81.9703 41.1249 80.9742C42.6517 79.9781 43.9673 78.691 44.9966 77.1864C46.0258 75.6817 46.7485 73.9891 47.1235 72.205C47.4984 70.421 47.5182 68.5806 47.1817 66.789C46.8452 64.9973 46.159 63.2895 45.1624 61.7631C40.9742 55.3435 19.8889 48.424 19.8889 48.424C19.8889 48.424 17.7271 70.5101 21.9153 76.9296Z" fill="#B8B4FF"/>
<path d="M27.0041 33.9062C27.9997 35.4334 29.2863 36.7494 30.7905 37.7792C32.2948 38.809 33.9872 39.5324 35.7711 39.908C37.555 40.2836 39.3954 40.3041 41.1871 39.9682C42.9789 39.6324 44.687 38.9469 46.2138 37.9508C47.7406 36.9547 49.0562 35.6676 50.0854 34.1629C51.1147 32.6583 51.8374 30.9656 52.2123 29.1816C52.5873 27.3976 52.6071 25.5572 52.2706 23.7655C51.9341 21.9739 51.2479 20.266 50.2512 18.7396C46.0631 12.3201 24.9778 5.40051 24.9778 5.40051C24.9778 5.40051 22.816 27.4867 27.0041 33.9062Z" fill="#BAB6FF"/>
<path d="M49.3732 191.528C52.6292 191.533 55.7901 190.43 58.336 188.4C60.8819 186.37 62.6614 183.535 63.3817 180.36C64.102 177.184 63.7204 173.858 62.2994 170.929C60.8785 167.999 58.503 165.64 55.5634 164.24C48.5779 160.911 27.6257 165.784 26.7368 165.993L26.175 166.125L26.4263 166.645C26.8238 167.467 36.242 186.806 43.2282 190.134C45.147 191.051 47.2466 191.527 49.3732 191.528ZM48.2063 164.006C51.0479 164.006 53.5381 164.3 55.1654 165.075C58.3778 166.605 60.8507 169.349 62.0401 172.703C63.2295 176.056 63.0381 179.745 61.5079 182.957C59.9777 186.169 57.2341 188.642 53.8806 189.832C50.5271 191.021 46.8385 190.83 43.6262 189.299C37.5487 186.404 29.096 169.926 27.5177 166.765C30.0431 166.204 40.436 164.006 48.2063 164.006Z" fill="white" fill-opacity="0.24"/>
<path d="M77.6552 64.196C76.3085 65.424 75.2168 66.9052 74.4425 68.5551C73.6681 70.205 73.2264 71.9912 73.1424 73.8119C73.0584 75.6325 73.3339 77.4518 73.953 79.166C74.5722 80.8801 75.5229 82.4556 76.7509 83.8023C77.9788 85.1491 79.4601 86.2408 81.11 87.0151C82.7598 87.7894 84.5461 88.2311 86.3667 88.3151C88.1873 88.3991 90.0067 88.1236 91.7208 87.5045C93.435 86.8854 95.0104 85.9347 96.3572 84.7067C102.021 79.5423 105.466 57.6195 105.466 57.6195C105.466 57.6195 83.3191 59.0316 77.6552 64.196Z" fill="#8C85FF"/>
<path d="M110.039 122.486C107.319 124.966 105.695 128.425 105.526 132.102C105.356 135.778 106.654 139.372 109.134 142.092C111.614 144.812 115.073 146.435 118.75 146.605C122.427 146.774 126.021 145.476 128.74 142.996C134.404 137.832 137.849 115.909 137.849 115.909C137.849 115.909 115.702 117.321 110.039 122.486Z" fill="#BAB6FF"/>
<path d="M73.7404 130.661C78.3726 130.661 87.2303 126.274 87.6367 126.072L88.1533 125.814L87.7894 125.366C87.4784 124.983 80.126 115.975 75.9906 115.08C73.9383 114.636 71.7935 115.025 70.0282 116.162C68.2628 117.299 67.0214 119.091 66.5771 121.143C66.1328 123.195 66.522 125.34 67.6591 127.106C68.7962 128.871 70.5879 130.112 72.6403 130.557C73.0023 130.63 73.371 130.665 73.7404 130.661ZM86.6968 125.499C84.5152 126.54 76.1598 130.372 72.8359 129.652C71.0245 129.259 69.4434 128.162 68.4402 126.603C67.437 125.045 67.0938 123.151 67.486 121.34C67.8782 119.528 68.9738 117.946 70.5319 116.942C72.09 115.938 73.9831 115.593 75.795 115.984C79.1201 116.704 85.1413 123.648 86.6968 125.499Z" fill="white" fill-opacity="0.24"/>
<path d="M135.62 273.154C134.646 271.434 133.028 270.173 131.124 269.645C129.219 269.118 127.183 269.369 125.463 270.342C123.743 271.315 122.48 272.932 121.952 274.836C121.423 276.74 121.672 278.776 122.644 280.497C124.672 284.08 135.741 288.504 135.741 288.504C135.741 288.504 137.648 276.737 135.62 273.154Z" fill="#8E87FF"/>
<path d="M147.636 239.505C150.829 239.454 154.015 239.179 157.17 238.683L157.74 238.59L157.525 238.055C157.342 237.597 152.994 226.812 149.311 224.73C148.406 224.218 147.409 223.89 146.377 223.763C145.345 223.637 144.298 223.715 143.296 223.993C142.295 224.271 141.357 224.744 140.538 225.385C139.719 226.025 139.034 226.82 138.522 227.725C138.011 228.63 137.682 229.627 137.556 230.659C137.429 231.691 137.508 232.738 137.786 233.74C138.064 234.742 138.537 235.679 139.177 236.498C139.817 237.317 140.613 238.002 141.518 238.514C142.841 239.262 145.171 239.505 147.636 239.505ZM156.442 237.857C154.05 238.203 144.934 239.382 141.973 237.709C140.359 236.796 139.173 235.28 138.677 233.493C138.181 231.706 138.415 229.795 139.328 228.181C140.24 226.566 141.757 225.381 143.544 224.885C145.331 224.388 147.241 224.622 148.856 225.535C151.817 227.209 155.506 235.628 156.442 237.857Z" fill="#B0AFE8" fill-opacity="0.24"/>
<circle cx="177.937" cy="173.774" r="173.454" fill="#B0AFE8" fill-opacity="0.24"/>
<circle cx="34.9191" cy="156.129" r="10.6147" fill="#71D5FF" fill-opacity="0.24"/>
<circle cx="177.919" cy="156.129" r="10.6147" fill="#71D5FF" fill-opacity="0.24"/>
<mask id="mask0_0_269" style="mask-type:alpha" maskUnits="userSpaceOnUse" x="4" y="4" width="348" height="348">
<circle cx="177.937" cy="177.774" r="172.954" fill="#B0AFE8" fill-opacity="0.24" stroke="black"/>
</mask>
<g mask="url(#mask0_0_269)">
<path d="M356.944 325.187L160.152 358.74C160.152 358.74 146.188 300.914 169.676 296.225C193.165 291.536 195.04 318.583 218.39 276.973C241.741 235.363 277.982 231.236 286.32 252.05C294.658 272.864 283.976 292.473 308.001 282.904C332.025 273.334 370.307 281.175 356.944 325.187Z" fill="#6C63FF" fill-opacity="0.38"/>
<path d="M229.545 351.411L228.871 351.384C230.443 312.309 238.626 287.202 245.215 273.022C252.369 257.624 259.262 251.391 259.331 251.33L259.779 251.834C259.711 251.894 252.898 258.066 245.802 273.359C239.25 287.48 231.111 312.483 229.545 351.411Z" fill="#F2F2F2"/>
<path d="M301.797 351.492L301.149 351.303C308.946 324.544 327.304 307.649 327.489 307.482L327.942 307.981C327.759 308.147 309.538 324.923 301.797 351.492Z" fill="#F2F2F2"/>
<path d="M164.542 351.444L163.874 351.351C166.519 332.275 161.741 317.474 157.267 308.418C152.423 298.611 146.895 293.255 146.84 293.202L147.307 292.716C147.363 292.769 152.976 298.208 157.872 308.119C162.388 317.261 167.211 332.198 164.542 351.444Z" fill="#F2F2F2"/>
<path d="M-22.441 266.874L105.26 334.771C105.26 334.771 128.034 298.182 112.948 289.607C97.8618 281.033 90.4122 299.207 83.8299 265.272C77.2476 231.336 53.2627 220.244 42.7879 232.659C32.313 245.075 35.1933 260.994 20.85 248.941C6.50668 236.888 -21.6071 233.561 -22.441 266.874Z" fill="#6C63FF" fill-opacity="0.38"/>
<path d="M43.5605 301.977L44.0007 302.189C56.2856 276.659 59.5895 257.815 60.1979 246.503C60.8587 234.221 58.569 227.889 58.5458 227.826L58.0877 227.996C58.1105 228.058 60.3698 234.323 59.7078 246.519C59.0966 257.781 55.799 276.543 43.5605 301.977Z" fill="#F2F2F2"/>
<path d="M-2.68505 277.455L-2.20679 277.555C1.90726 257.786 -4.09037 240.734 -4.15154 240.564L-4.61123 240.73C-4.55066 240.898 1.39977 257.827 -2.68505 277.455Z" fill="#F2F2F2"/>
<path d="M85.1306 324.106L85.5896 324.274C90.3857 311.172 98.4759 303.329 104.418 299.057C110.852 294.432 116.21 292.886 116.263 292.871L116.13 292.401C116.076 292.416 110.636 293.986 104.133 298.661C98.135 302.973 89.9695 310.887 85.1306 324.106Z" fill="#F2F2F2"/>
</g>
</svg>
